<svg version="1.1" xmlns="http://www.w3.org/2000/svg" xmlns:xlink="http://www.w3.org/1999/xlink" x="0px" y="0px"
	 viewBox="0 0 132 50" style="enable-background:new 0 0 132 50;" xml:space="preserve">
<style type="text/css">
	.st0{fill:#FFFFFF;}
	.st1{fill-rule:evenodd;clip-rule:evenodd;fill:#B72A1E;}
	.st2{fill-rule:evenodd;clip-rule:evenodd;fill:#FFFFFF;}
</style>
<g>
	<path class="st0" d="M63.5,19.6c0,0.1,0,0.1,0,0.2c0.1,0.7,0.7,1.2,1.4,1.1c0.7,0,1.2-0.4,1.2-0.9s-0.3-0.8-1.7-1.3
		c-2.6-0.9-3.6-2-3.6-3.8c0-2.2,1.6-3.7,4.2-3.7c1.4-0.1,2.8,0.6,3.6,1.8c0.3,0.6,0.6,1.2,0.6,1.9h-3c0-0.6-0.5-1.2-1.1-1.2
		c-0.1,0-0.1,0-0.2,0c-0.7,0-1.2,0.4-1.2,0.9c0,0.4,0.2,0.7,0.6,0.9s0.9,0.4,1.4,0.6c0.9,0.3,1.8,0.7,2.5,1.3c0.7,0.6,1.1,1.5,1,2.4
		c0,2.2-1.7,3.7-4.3,3.7c-2.6,0-4.2-1.5-4.2-3.8L63.5,19.6z"/>
	<path class="st0" d="M73.8,20.5c0,0.4,0.2,0.5,0.7,0.5h0.3v2.2h-2.1c-1.1,0-1.6-0.5-1.6-1.7v-4.3h-0.8V15h0.8v-2.1h2.7V15h0.9v2.2
		h-0.9V20.5z"/>
	<path class="st0" d="M79.1,15v1.1c0.1-0.4,0.4-0.8,0.7-1c0.3-0.2,0.7-0.4,1.2-0.4h0.3v2.8h-0.5c-0.5,0-1.1,0.2-1.4,0.7
		c-0.2,0.4-0.3,0.8-0.3,1.3v3.9h-2.7V15H79.1z"/>
	<path class="st0" d="M88.8,15h2.7v8.3h-2.7v-1c-0.7,0.8-1.7,1.3-2.8,1.2c-2.2,0-4-1.8-4-4.1c0-0.1,0-0.2,0-0.3
		c-0.2-2.4,1.6-4.4,4-4.6c0.1,0,0.2,0,0.3,0c1,0,2,0.4,2.6,1.2L88.8,15z M84.9,19.1c-0.1,1.1,0.8,2.1,1.9,2.2c0,0,0,0,0.1,0
		c1.2,0,2.1-1.1,2.1-2.3l0,0c0-1-0.9-2-2-2.1h-0.1c-1.1,0-2.1,1-2,2.1C84.8,19.1,84.8,19.1,84.9,19.1L84.9,19.1z"/>
	<path class="st0" d="M96.5,20.5c0,0.4,0.2,0.5,0.7,0.5h0.3v2.2h-2.1c-1.1,0-1.6-0.5-1.6-1.7v-4.3H93V15h0.8v-2.1h2.7V15h0.9v2.2
		h-0.9V20.5z"/>
	<path class="st0" d="M101.2,19.7c0.2,0.9,1,1.5,1.9,1.5c0.7,0,1.3-0.3,1.6-0.9l2.5,0.6c-0.3,0.7-0.8,1.2-1.4,1.7
		c-2,1.6-4.9,1.2-6.5-0.8c-0.6-0.8-1-1.7-1-2.7c-0.1-2.3,1.7-4.3,4-4.4c0.2,0,0.3,0,0.5,0c2.4-0.1,4.5,1.8,4.6,4.2
		c0,0.2,0,0.3,0,0.5v0.4h-6.2V19.7z M104.7,18.3c-0.2-0.8-0.9-1.4-1.8-1.3c-0.8-0.1-1.6,0.5-1.7,1.3H104.7z"/>
	<path class="st0" d="M115.1,15h2.6v7.3c0,1.8-0.3,2.8-1.1,3.6c-1,0.9-2.3,1.4-3.6,1.3c-1.6,0-3.1-0.6-4.3-1.7l1.6-1.7
		c0.6,0.7,1.5,1.1,2.5,1.1c1.1,0.1,2.1-0.8,2.2-1.9c0-0.1,0-0.2,0-0.4v-0.4c-0.7,0.8-1.8,1.3-2.9,1.2c-1.2,0-2.3-0.5-3-1.4
		c-0.6-0.8-1-1.9-0.9-3c-0.2-2.3,1.5-4.3,3.8-4.5c0.2,0,0.3,0,0.5,0c1-0.1,1.9,0.4,2.6,1.2L115.1,15z M111.2,19.1
		c-0.1,1.1,0.8,2,1.8,2.1h0.1c0.6,0,1.1-0.2,1.5-0.6c0.3-0.3,0.4-0.8,0.4-1.2c0-1.4-0.7-2.3-1.9-2.3c-1,0-1.9,0.8-2,1.8
		C111.2,18.9,111.2,19,111.2,19.1z"/>
	<path class="st0" d="M122.6,12.6c0,0.8-0.7,1.4-1.5,1.4s-1.4-0.7-1.4-1.5s0.7-1.4,1.5-1.4C121.9,11.1,122.6,11.7,122.6,12.6
		C122.6,12.5,122.6,12.6,122.6,12.6z M122.5,23.2h-2.7v-8.3h2.7V23.2z"/>
	<path class="st0" d="M131.8,22.3c-0.9,0.8-2,1.3-3.2,1.2c-1.2,0-2.4-0.5-3.3-1.3c-0.8-0.8-1.3-1.9-1.2-3.1
		c-0.1-2.4,1.8-4.4,4.2-4.5c0.1,0,0.2,0,0.3,0c1.3,0,2.5,0.5,3.4,1.4l-1.8,1.6c-0.4-0.4-0.9-0.7-1.5-0.7c-1.1,0-1.9,0.9-1.9,2l0,0
		c0,1.1,0.9,2.1,2.1,2.1c0.5,0,1-0.2,1.4-0.6L131.8,22.3z"/>
	<path class="st0" d="M67.4,28.4h3l-3.6,11.9h-3.1l-3.4-11.9h3l2,7.3L67.4,28.4z"/>
	<path class="st0" d="M73.2,36.7c0.2,0.9,1,1.5,1.9,1.5c0.7,0,1.3-0.3,1.6-0.9l2.5,0.6c-0.3,0.7-0.8,1.2-1.4,1.7
		c-2,1.6-4.9,1.2-6.5-0.8c-0.6-0.8-1-1.7-1-2.7c-0.1-2.3,1.7-4.3,4-4.4c0.1,0,0.3,0,0.4,0c2.4-0.1,4.5,1.7,4.6,4.1
		c0,0.2,0,0.3,0,0.5v0.3L73.2,36.7z M76.7,35.3c-0.2-0.8-0.9-1.4-1.8-1.3c-0.8-0.1-1.6,0.5-1.7,1.3H76.7z"/>
	<path class="st0" d="M83.6,32v0.9c0.4-0.8,1.2-1.3,2.1-1.2c0.8,0,1.5,0.3,2.1,0.8c0.6,0.6,0.7,1.2,0.7,2.7v5.1h-2.6v-5
		c0-0.8-0.4-1.3-1.1-1.3c-0.6,0-1.2,0.5-1.2,1.2c0,0.1,0,0.1,0,0.2v5H81V32H83.6z"/>
	<path class="st0" d="M93.4,37.5c0,0.4,0.2,0.5,0.7,0.5h0.3v2.3h-2.1c-1.1,0-1.6-0.5-1.6-1.7v-4.3h-0.8v-2.2h0.8V30h2.7v2.1h0.9v2.2
		h-0.9V37.5z"/>
	<path class="st0" d="M103.5,32v5.2c0.1,1-0.3,1.9-1,2.6c-0.8,0.6-1.8,0.9-2.8,0.8c-1.1,0.1-2.1-0.3-2.9-0.9c-0.7-0.7-1-1.6-0.9-2.5
		V32h2.8v5c0,0.9,0.4,1.3,1.1,1.3c0.6,0,1.1-0.4,1.1-1c0-0.1,0-0.1,0-0.2V32H103.5z"/>
	<path class="st0" d="M108.1,32v1.1c0.1-0.4,0.4-0.8,0.7-1.1c0.4-0.2,0.8-0.4,1.2-0.4h0.3v2.8h-0.5c-0.6,0-1.1,0.2-1.4,0.7
		c-0.2,0.4-0.3,0.8-0.3,1.3v3.9h-2.7V32H108.1z"/>
	<path class="st0" d="M113.8,36.7c0.2,0.9,1,1.5,1.9,1.5c0.7,0,1.3-0.3,1.6-0.9l2.5,0.6c-0.3,0.7-0.7,1.2-1.3,1.7
		c-2,1.6-4.9,1.2-6.5-0.8c-0.6-0.8-0.9-1.7-1-2.7c-0.1-2.3,1.7-4.3,4-4.4c0.2,0,0.3,0,0.5,0c2.4-0.1,4.5,1.8,4.6,4.2
		c0,0.2,0,0.3,0,0.5v0.3L113.8,36.7z M117.3,35.3c-0.2-0.8-0.9-1.4-1.8-1.3c-0.8-0.1-1.6,0.5-1.7,1.3H117.3z"/>
	<path class="st0" d="M125,34.4v-0.2c0-0.4-0.4-0.7-0.8-0.7l0,0c-0.3,0-0.6,0.2-0.6,0.5l0,0c0,0.3,0.2,0.5,0.9,0.7
		c2.3,0.7,3.1,1.4,3.1,2.9c0,1.7-1.3,2.8-3.3,2.8s-3.3-1-3.3-2.8h2.6c0.1,0.6,0.3,0.8,0.8,0.8c0.3,0,0.6-0.2,0.6-0.6l0,0
		c0-0.4-0.3-0.6-1.4-0.9c-1.8-0.6-2.6-1.4-2.6-2.7c0-1.6,1.3-2.7,3.3-2.7s3.1,1,3.2,2.8L125,34.4z"/>
	<path class="st1" d="M0,0v50h50V0H0z M34.3,16.1h-9.2v5.4h9.2l-1.4,3.2h-7.7v1.5v1.1h6.6l-1.4,3.2h-5.1v10h-5.8v-10h-2.4h-0.8v-3.2
		H19h0.5v-2.6H17h-0.9v-3.2H19h0.4V11.4h14.9V16.1z"/>
</g>
<polygon class="st2" points="34.3,16.1 25.1,16.1 25.1,21.5 34.3,21.5 32.9,24.7 25.2,24.7 25.2,26.2 25.2,27.3 31.8,27.3
	30.4,30.5 25.3,30.5 25.3,40.5 19.5,40.5 19.5,30.5 17.1,30.5 16.3,30.5 16.3,27.3 19,27.3 19.5,27.3 19.5,24.7 17,24.7 16.1,24.7
	16.1,21.5 19,21.5 19.4,21.5 19.4,11.4 34.3,11.4 "/>
</svg>
